# xmcd CD database file
#
# Track frame offsets:
#	150
#	26707
#	54424
#	82220
#	117203
#	142579
#	159616
#	189868
#	207441
#
# Disc length: 3120 seconds
#
# Revision: 0
# Processed by: cddbd v1.5.2PL0 Copyright (c) Steve Scherf et al.
# Submitted via: CDex 1.70beta2
#
DISCID=730c2e09
DTITLE=Francisco LoVuolo - Segment
DYEAR=2012
DGENRE=Jazz
TTITLE0=YESTERDAYS
TTITLE1=THE VERY THOUGHT OF YOU
TTITLE2=LOCAL 47
TTITLE3=MONK'S MOOD
TTITLE4=EASY TO LOVE
TTITLE5=SEGMENT
TTITLE6=NOBODY KNOWS THE TROUBLE I'VE SEEN
TTITLE7=THE EYE OF THE HURRICANE
TTITLE8=MY FUNNY VALENTINE
EXTD=YEAR: 2012
EXTT0=
EXTT1=
EXTT2=
EXTT3=
EXTT4=
EXTT5=
EXTT6=
EXTT7=
EXTT8=
PLAYORDER=
